<svg width="25" height="21" viewBox="0 0 25 21" fill="none" xmlns="http://www.w3.org/2000/svg">
<path d="M4.165 1.75002L4.55875 2.52877L5.04 3.50002H8.75V7.87502H1.75V1.75002H4.165ZM4.7075 2.1196e-05H0.875C0.642936 2.1196e-05 0.420376 0.0922086 0.256282 0.256303C0.0921872 0.420397 0 0.642957 0 0.875021V8.75002C0 8.98209 0.0921872 9.20465 0.256282 9.36874C0.420376 9.53284 0.642936 9.62502 0.875 9.62502H9.625C9.85707 9.62502 10.0796 9.53284 10.2437 9.36874C10.4078 9.20465 10.5 8.98209 10.5 8.75002V2.62502C10.5 2.39296 10.4078 2.1704 10.2437 2.0063C10.0796 1.84221 9.85707 1.75002 9.625 1.75002H6.125L5.495 0.481271C5.42162 0.33564 5.30901 0.213413 5.16986 0.128379C5.03071 0.0433441 4.87057 -0.00111367 4.7075 2.1196e-05ZM18.165 1.75002L18.5588 2.52877L19.04 3.50002H22.75V7.87502H15.75V1.75002H18.165ZM18.7075 2.1196e-05H14.875C14.6429 2.1196e-05 14.4204 0.0922086 14.2563 0.256303C14.0922 0.420397 14 0.642957 14 0.875021V8.75002C14 8.98209 14.0922 9.20465 14.2563 9.36874C14.4204 9.53284 14.6429 9.62502 14.875 9.62502H23.625C23.8571 9.62502 24.0796 9.53284 24.2437 9.36874C24.4078 9.20465 24.5 8.98209 24.5 8.75002V2.62502C24.5 2.39296 24.4078 2.1704 24.2437 2.0063C24.0796 1.84221 23.8571 1.75002 23.625 1.75002H20.125L19.495 0.481271C19.4216 0.33564 19.309 0.213413 19.1699 0.128379C19.0307 0.0433441 18.8706 -0.00111367 18.7075 2.1196e-05ZM4.165 13.125L4.55875 13.9038L5.04 14.875H8.75V19.25H1.75V13.125H4.165ZM4.7075 11.375H0.875C0.642936 11.375 0.420376 11.4672 0.256282 11.6313C0.0921872 11.7954 0 12.018 0 12.25V20.125C0 20.3571 0.0921872 20.5796 0.256282 20.7437C0.420376 20.9078 0.642936 21 0.875 21H9.625C9.85707 21 10.0796 20.9078 10.2437 20.7437C10.4078 20.5796 10.5 20.3571 10.5 20.125V14C10.5 13.768 10.4078 13.5454 10.2437 13.3813C10.0796 13.2172 9.85707 13.125 9.625 13.125H6.125L5.495 11.8563C5.42162 11.7106 5.30901 11.5884 5.16986 11.5034C5.03071 11.4183 4.87057 11.3739 4.7075 11.375ZM18.165 13.125L18.5588 13.9038L19.04 14.875H22.75V19.25H15.75V13.125H18.165ZM18.7075 11.375H14.875C14.6429 11.375 14.4204 11.4672 14.2563 11.6313C14.0922 11.7954 14 12.018 14 12.25V20.125C14 20.3571 14.0922 20.5796 14.2563 20.7437C14.4204 20.9078 14.6429 21 14.875 21H23.625C23.8571 21 24.0796 20.9078 24.2437 20.7437C24.4078 20.5796 24.5 20.3571 24.5 20.125V14C24.5 13.768 24.4078 13.5454 24.2437 13.3813C24.0796 13.2172 23.8571 13.125 23.625 13.125H20.125L19.495 11.8563C19.4216 11.7106 19.309 11.5884 19.1699 11.5034C19.0307 11.4183 18.8706 11.3739 18.7075 11.375Z" fill="white"/>
</svg>
