<svg width="23" height="21" viewBox="0 0 23 21" fill="none" xmlns="http://www.w3.org/2000/svg">
<path d="M22.5411 10.4426C22.5411 4.67473 17.6865 0 11.6968 0C5.70706 0 0.852539 4.67473 0.852539 10.4426C0.852539 15.6558 4.81747 19.9756 10.0024 20.7588V13.4612H7.24894V10.4426H10.0024V8.14198C10.0024 5.52519 11.6206 4.07915 14.0986 4.07915C15.2847 4.07915 16.5259 4.28311 16.5259 4.28311V6.85297H15.1577C13.8106 6.85297 13.3912 7.65862 13.3912 8.48463V10.4426H16.3988L15.918 13.4612H13.3912V20.7588C18.5761 19.9756 22.5411 15.6558 22.5411 10.4426Z" fill="#1877F2"/>
<path d="M15.9181 13.4611L16.3989 10.4426H13.3913V8.48458C13.3913 7.65857 13.8107 6.85292 15.1577 6.85292H16.526V4.28306C16.526 4.28306 15.2848 4.0791 14.0987 4.0791C11.6207 4.0791 10.0025 5.52514 10.0025 8.14193V10.4426H7.24902V13.4611H10.0025V20.7588C10.5553 20.8424 11.1208 20.8852 11.6969 20.8852C12.273 20.8852 12.8385 20.8424 13.3913 20.7588V13.4611H15.9181Z" fill="white"/>
</svg>
