<svg width="22" height="19" viewBox="0 0 22 19" fill="none" xmlns="http://www.w3.org/2000/svg">
<g filter="url(#filter0_i_846_19728)">
<path d="M2.46447 2.45836C0.511845 4.40285 0.511845 7.55548 2.46447 9.49997L11.0001 18L19.5355 9.49997C21.4882 7.55548 21.4882 4.40285 19.5355 2.45836C17.5829 0.513878 14.4171 0.513879 12.4645 2.45837L11.0001 3.91679L9.53553 2.45836C7.58291 0.513879 4.41709 0.513879 2.46447 2.45836Z" fill="#EDF1FF"/>
</g>
<path d="M2.46447 2.45836C0.511845 4.40285 0.511845 7.55548 2.46447 9.49997L11.0001 18L19.5355 9.49997C21.4882 7.55548 21.4882 4.40285 19.5355 2.45836C17.5829 0.513878 14.4171 0.513879 12.4645 2.45837L11.0001 3.91679L9.53553 2.45836C7.58291 0.513879 4.41709 0.513879 2.46447 2.45836Z" stroke="#849DF8" stroke-opacity="0.1" stroke-width="2" stroke-linecap="round" stroke-linejoin="round"/>
<defs>
<filter id="filter0_i_846_19728" x="0" y="0" width="22" height="23" filterUnits="userSpaceOnUse" color-interpolation-filters="sRGB">
<feFlood flood-opacity="0" result="BackgroundImageFix"/>
<feBlend mode="normal" in="SourceGraphic" in2="BackgroundImageFix" result="shape"/>
<feColorMatrix in="SourceAlpha" type="matrix" values="0 0 0 0 0 0 0 0 0 0 0 0 0 0 0 0 0 0 127 0" result="hardAlpha"/>
<feOffset dy="4"/>
<feGaussianBlur stdDeviation="2"/>
<feComposite in2="hardAlpha" operator="arithmetic" k2="-1" k3="1"/>
<feColorMatrix type="matrix" values="0 0 0 0 0 0 0 0 0 0 0 0 0 0 0 0 0 0 0.25 0"/>
<feBlend mode="normal" in2="shape" result="effect1_innerShadow_846_19728"/>
</filter>
</defs>
</svg>
