<svg width="23" height="20" viewBox="0 0 23 20" fill="none" xmlns="http://www.w3.org/2000/svg">
<path d="M1.91665 19.0004H7.66665C8.24165 19.0004 8.62498 18.6004 8.62498 18.0004C8.62498 17.4004 8.24165 17.0004 7.66665 17.0004H2.97081C3.44998 13.6004 6.32498 11.0004 9.58331 11.0004C12.2666 11.0004 14.4708 8.80039 14.4708 6.00039C14.4708 3.20039 12.3625 0.900391 9.67915 0.900391C6.99581 0.900391 4.79165 3.10039 4.79165 5.90039C4.79165 7.30039 5.36665 8.70039 6.32498 9.70039C3.06665 11.0004 0.958313 14.3004 0.958313 18.0004C0.958313 18.6004 1.34165 19.0004 1.91665 19.0004ZM9.58331 3.00039C11.2125 3.00039 12.4583 4.30039 12.4583 6.00039C12.4583 7.70039 11.2125 9.00039 9.58331 9.00039C7.95415 9.00039 6.70831 7.70039 6.70831 6.00039C6.70831 4.30039 7.95415 3.00039 9.58331 3.00039ZM19.3583 7.30039C18.975 6.90039 18.4 6.90039 18.0166 7.30039L11.9791 13.6004C11.6916 13.9004 11.7875 13.9004 10.5416 17.7004C10.2541 18.5004 11.0208 19.2004 11.7875 19.0004C15.4291 17.7004 15.4291 17.8004 15.7166 17.5004L21.7541 11.2004C22.1375 10.8004 22.1375 10.2004 21.7541 9.80039L19.3583 7.30039ZM14.5666 15.9004L13.0333 16.4004L13.5125 14.8004L18.6875 9.40039L19.7416 10.5004L14.5666 15.9004Z" fill="white"/>
</svg>
