<svg width="21" height="21" viewBox="0 0 21 21" fill="none" xmlns="http://www.w3.org/2000/svg">
<path d="M0.114746 10.4426C0.114746 4.67532 4.79007 0 10.5574 0C16.3247 0 21 4.67532 21 10.4426C21 16.2099 16.3247 20.8852 10.5574 20.8852C4.79007 20.8852 0.114746 16.2099 0.114746 10.4426Z" fill="#0077B5"/>
<path fill-rule="evenodd" clip-rule="evenodd" d="M7.65037 6.4495C7.65037 7.13223 7.13646 7.67853 6.31129 7.67853H6.29616C5.50166 7.67853 4.98804 7.13223 4.98804 6.4495C4.98804 5.75232 5.51731 5.22131 6.32688 5.22131C7.13646 5.22131 7.63501 5.75232 7.65037 6.4495ZM7.4945 8.64904V15.7595H5.12798V8.64904H7.4945ZM16.029 15.7595L16.0291 11.6826C16.0291 9.49855 14.8616 8.48207 13.3043 8.48207C12.0479 8.48207 11.4853 9.17221 11.1712 9.65636V8.64923H8.80442C8.83562 9.31643 8.80442 15.7597 8.80442 15.7597H11.1712V11.7886C11.1712 11.5761 11.1866 11.3641 11.2492 11.212C11.4202 10.7874 11.8096 10.3479 12.4634 10.3479C13.3201 10.3479 13.6626 10.9999 13.6626 11.9554V15.7595H16.029Z" fill="white"/>
</svg>
