<svg width="14" height="17" viewBox="0 0 14 17" fill="none" xmlns="http://www.w3.org/2000/svg">
<path d="M13.1667 5.54V3.55273C13.1667 3.38532 13.1016 3.22909 12.9933 3.13696C12.885 3.04478 12.7482 3.02901 12.629 3.09495L7.22864 6.08324C7.08682 6.16173 6.99486 6.34179 6.99486 6.54101V13.4105C6.66327 13.1548 6.25982 13.0156 5.83764 13.0156C5.34258 13.0156 4.8729 13.2064 4.51516 13.5528C4.12991 13.9259 3.90894 14.4562 3.90894 15.0078C3.90894 15.5594 4.12991 16.0897 4.51516 16.4628C4.8729 16.8092 5.34258 17 5.83764 17C6.3327 17 6.80237 16.8092 7.16011 16.4628C7.54536 16.0897 7.76634 15.5594 7.76634 15.0078V8.86161L12.3952 6.30022V10.4223C12.0636 10.1665 11.6602 10.0273 11.238 10.0273C10.7429 10.0273 10.2733 10.2181 9.91553 10.5646C9.53028 10.9376 9.3093 11.468 9.3093 12.0195C9.3093 12.5711 9.53028 13.1014 9.91553 13.4745C10.2733 13.8209 10.7429 14.0117 11.238 14.0117C11.7331 14.0117 12.2027 13.8209 12.5605 13.4745C12.9457 13.1014 13.1667 12.5711 13.1667 12.0195C13.1667 12.0195 13.1667 5.54173 13.1667 5.54ZM5.83764 16.0039C5.21035 16.0039 4.68042 15.5478 4.68042 15.0078C4.68042 14.4679 5.21035 14.0117 5.83764 14.0117C6.46493 14.0117 6.99486 14.4679 6.99486 15.0078C6.99486 15.5478 6.46493 16.0039 5.83764 16.0039ZM7.76634 7.77789V6.86942L12.3952 4.30803V5.2165L7.76634 7.77789ZM11.238 13.0156C10.6107 13.0156 10.0808 12.5595 10.0808 12.0195C10.0808 11.4796 10.6107 11.0234 11.238 11.0234C11.8653 11.0234 12.3952 11.4796 12.3952 12.0195C12.3952 12.5595 11.8653 13.0156 11.238 13.0156Z" fill="#75818F"/>
<path d="M5.40036 5.47868C5.40036 6.12119 4.92464 6.88085 4.74188 7.11872C4.59123 7.31322 4.59123 7.62855 4.74188 7.82305C4.8925 8.01756 5.13675 8.01759 5.28739 7.82305C5.37794 7.70618 6.17187 6.64733 6.17187 5.47871C6.17187 4.54235 5.75658 3.35262 4.9375 1.94258C4.3495 0.930383 3.7695 0.178432 3.74451 0.146159C3.50381 -0.164822 3.08592 0.0533558 3.08592 0.498211V7.36774C2.75434 7.11201 2.35088 6.97282 1.9287 6.97282C1.43364 6.97282 0.963965 7.16361 0.606229 7.51005C0.220978 7.88312 0 8.41344 0 8.96501C0 9.51658 0.220978 10.0469 0.606229 10.42C0.963965 10.7664 1.43364 10.9572 1.9287 10.9572C2.42376 10.9572 2.89344 10.7664 3.25117 10.42C3.63642 10.0469 3.8574 9.51658 3.8574 8.96501V1.78769C4.55305 2.85673 5.40036 4.41077 5.40036 5.47868ZM1.9287 9.9611C1.30141 9.9611 0.77148 9.50496 0.77148 8.96501C0.77148 8.42506 1.30141 7.96891 1.9287 7.96891C2.55599 7.96891 3.08592 8.42506 3.08592 8.96501C3.08592 9.50496 2.55599 9.9611 1.9287 9.9611Z" fill="#75818F"/>
</svg>
