<svg width="20" height="21" viewBox="0 0 20 21" fill="none" xmlns="http://www.w3.org/2000/svg">
<path d="M17.7188 0H1.96875C0.885938 0 0 0.885938 0 1.96875V19.0312C0 20.1141 0.885938 21 1.96875 21H17.7188C18.8016 21 19.6875 20.1141 19.6875 19.0312V1.96875C19.6875 0.885938 18.8016 0 17.7188 0ZM17.0625 18.375H2.625V2.625H17.0625V18.375ZM5.25 11.8125H14.4375V13.125H5.25V11.8125ZM5.25 14.4375H14.4375V15.75H5.25V14.4375ZM6.5625 5.90625C6.56259 5.64762 6.61361 5.39155 6.71266 5.15264C6.81171 4.91373 6.95685 4.69668 7.13979 4.51386C7.32273 4.33105 7.53988 4.18605 7.77885 4.08716C8.01783 3.98827 8.27394 3.93741 8.53256 3.9375C8.79119 3.93759 9.04727 3.98861 9.28617 4.08766C9.52508 4.18671 9.74214 4.33185 9.92495 4.51479C10.1078 4.69773 10.2528 4.91488 10.3517 5.15385C10.4505 5.39283 10.5014 5.64894 10.5013 5.90756C10.5011 6.42988 10.2935 6.93074 9.92402 7.29995C9.55456 7.66916 9.05357 7.87649 8.53125 7.87631C8.00893 7.87614 7.50807 7.66848 7.13886 7.29902C6.76965 6.92956 6.56233 6.42857 6.5625 5.90625ZM9.84375 7.875H7.21875C6.13594 7.875 5.25 8.46562 5.25 9.1875V10.5H11.8125V9.1875C11.8125 8.46562 10.9266 7.875 9.84375 7.875Z" fill="white"/>
</svg>
