<svg width="19" height="19" viewBox="0 0 19 19" fill="none" xmlns="http://www.w3.org/2000/svg">
<path d="M1.16667 10.5417H7.41667C7.69293 10.5417 7.95789 10.4319 8.15324 10.2366C8.34859 10.0412 8.45833 9.77627 8.45833 9.5V1.16667C8.45833 0.890399 8.34859 0.625447 8.15324 0.430097C7.95789 0.234747 7.69293 0.125 7.41667 0.125H1.16667C0.890399 0.125 0.625447 0.234747 0.430097 0.430097C0.234747 0.625447 0.125 0.890399 0.125 1.16667V9.5C0.125 9.77627 0.234747 10.0412 0.430097 10.2366C0.625447 10.4319 0.890399 10.5417 1.16667 10.5417ZM0.125 17.8333C0.125 18.1096 0.234747 18.3746 0.430097 18.5699C0.625447 18.7653 0.890399 18.875 1.16667 18.875H7.41667C7.69293 18.875 7.95789 18.7653 8.15324 18.5699C8.34859 18.3746 8.45833 18.1096 8.45833 17.8333V13.6667C8.45833 13.3904 8.34859 13.1254 8.15324 12.9301C7.95789 12.7347 7.69293 12.625 7.41667 12.625H1.16667C0.890399 12.625 0.625447 12.7347 0.430097 12.9301C0.234747 13.1254 0.125 13.3904 0.125 13.6667V17.8333ZM10.5417 17.8333C10.5417 18.1096 10.6514 18.3746 10.8468 18.5699C11.0421 18.7653 11.3071 18.875 11.5833 18.875H17.8333C18.1096 18.875 18.3746 18.7653 18.5699 18.5699C18.7653 18.3746 18.875 18.1096 18.875 17.8333V10.5417C18.875 10.2654 18.7653 10.0004 18.5699 9.8051C18.3746 9.60975 18.1096 9.5 17.8333 9.5H11.5833C11.3071 9.5 11.0421 9.60975 10.8468 9.8051C10.6514 10.0004 10.5417 10.2654 10.5417 10.5417V17.8333ZM11.5833 7.41667H17.8333C18.1096 7.41667 18.3746 7.30692 18.5699 7.11157C18.7653 6.91622 18.875 6.65127 18.875 6.375V1.16667C18.875 0.890399 18.7653 0.625447 18.5699 0.430097C18.3746 0.234747 18.1096 0.125 17.8333 0.125H11.5833C11.3071 0.125 11.0421 0.234747 10.8468 0.430097C10.6514 0.625447 10.5417 0.890399 10.5417 1.16667V6.375C10.5417 6.65127 10.6514 6.91622 10.8468 7.11157C11.0421 7.30692 11.3071 7.41667 11.5833 7.41667Z" fill="#5365FD"/>
</svg>
