<svg width="16" height="26" viewBox="0 0 16 26" fill="none" xmlns="http://www.w3.org/2000/svg">
<path d="M6.92687 14.181C6.93812 14.0817 6.9855 13.9901 7.05998 13.9235C7.13446 13.8569 7.23083 13.8201 7.33073 13.82H16.2666L15.849 8.1055C15.8416 8.00314 15.7957 7.90737 15.7206 7.83748C15.6454 7.76759 15.5466 7.72876 15.4439 7.72881H13.0048V5.27028C13.0054 4.68511 12.8906 4.10556 12.6671 3.56477C12.4435 3.02399 12.1156 2.53256 11.702 2.11858C11.2884 1.70461 10.7973 1.3762 10.2567 1.15214C9.71617 0.928073 9.13674 0.812744 8.55157 0.812744C7.9664 0.812744 7.38696 0.928073 6.84639 1.15214C6.30581 1.3762 5.8147 1.70461 5.40112 2.11858C4.98754 2.53256 4.6596 3.02399 4.43605 3.56477C4.2125 4.10556 4.09773 4.68511 4.09829 5.27028V7.72881H1.65285C1.55023 7.72876 1.45139 7.76759 1.37624 7.83748C1.30108 7.90737 1.25519 8.00314 1.24779 8.1055L0.0310271 24.7506C0.0192104 24.8077 0.0212162 24.8667 0.0368768 24.9228C0.0525373 24.9789 0.0813979 25.0305 0.121047 25.0732C0.160697 25.1158 0.209984 25.1484 0.26479 25.1681C0.319597 25.1879 0.378331 25.1942 0.436087 25.1866L5.69004 25.1868L6.92687 14.181ZM13.4131 10.961C13.4132 11.1216 13.3656 11.2787 13.2764 11.4123C13.1872 11.5459 13.0604 11.65 12.912 11.7115C12.7637 11.7731 12.6004 11.7892 12.4428 11.7579C12.2852 11.7266 12.1405 11.6493 12.0269 11.5358C11.9133 11.4222 11.8359 11.2775 11.8045 11.12C11.7732 10.9624 11.7892 10.7991 11.8507 10.6507C11.9121 10.5023 12.0162 10.3754 12.1498 10.2862C12.2833 10.1969 12.4404 10.1493 12.601 10.1493C12.8163 10.1494 13.0227 10.235 13.1749 10.3872C13.3272 10.5393 13.4128 10.7457 13.4131 10.961ZM4.9108 5.27028C4.9103 4.79184 5.00409 4.31799 5.18683 3.87583C5.36957 3.43367 5.63767 3.03186 5.9758 2.69337C6.31393 2.35489 6.71545 2.08636 7.15742 1.90316C7.5994 1.71995 8.07314 1.62565 8.55158 1.62565C9.03002 1.62565 9.50376 1.71995 9.94573 1.90316C10.3877 2.08636 10.7892 2.35489 11.1274 2.69337C11.4655 3.03186 11.7336 3.43367 11.9163 3.87583C12.0991 4.31799 12.1929 4.79184 12.1924 5.27028V7.72881H4.9108V5.27028ZM4.49462 11.7725C4.33412 11.7724 4.17725 11.7247 4.04384 11.6354C3.91043 11.5462 3.80648 11.4194 3.74513 11.2711C3.68378 11.1228 3.66779 10.9596 3.69916 10.8022C3.73054 10.6448 3.80789 10.5002 3.92142 10.3868C4.03496 10.2733 4.17958 10.1961 4.33701 10.1648C4.49444 10.1335 4.65761 10.1496 4.80588 10.2111C4.95415 10.2726 5.08087 10.3766 5.17002 10.5101C5.25916 10.6435 5.30674 10.8005 5.30672 10.961C5.30633 11.1762 5.22063 11.3824 5.0684 11.5346C4.91617 11.6867 4.70983 11.7722 4.49462 11.7725Z" fill="white"/>
<path d="M10.1722 17.8791C10.3963 17.8791 10.578 17.6974 10.578 17.4732C10.578 17.2491 10.3963 17.0674 10.1722 17.0674C9.94806 17.0674 9.76636 17.2491 9.76636 17.4732C9.76636 17.6974 9.94806 17.8791 10.1722 17.8791Z" fill="white"/>
<path d="M21.968 24.7361L20.8731 14.9936C20.8618 14.8943 20.8144 14.8027 20.74 14.7361C20.6655 14.6695 20.5691 14.6327 20.4692 14.6326H8.06338C7.96168 14.6326 7.86355 14.67 7.78772 14.7378C7.7119 14.8056 7.6637 14.8989 7.65235 15L6.50781 25.187L21.5642 25.1875C21.6234 25.1958 21.6838 25.1893 21.74 25.1687C21.7962 25.1481 21.8464 25.114 21.8863 25.0694C21.9262 25.0248 21.9546 24.971 21.9688 24.9129C21.983 24.8548 21.9828 24.7941 21.968 24.7361ZM18.6991 18.6399C18.6309 19.7737 18.1321 20.8385 17.3048 21.6167C16.4774 22.3948 15.3841 22.8275 14.2483 22.8262C13.1125 22.8248 12.0201 22.3896 11.1946 21.6095C10.3691 20.8294 9.8728 19.7634 9.80726 18.6295C9.53471 18.5423 9.30176 18.3615 9.14954 18.1192C8.99732 17.8769 8.93564 17.5885 8.97537 17.3051C9.01511 17.0217 9.15372 16.7615 9.36671 16.5704C9.5797 16.3793 9.85338 16.2696 10.1394 16.2606C10.4254 16.2517 10.7054 16.3442 10.9299 16.5216C11.1544 16.6991 11.3089 16.9502 11.3663 17.2306C11.4236 17.511 11.38 17.8026 11.2431 18.0539C11.1063 18.3053 10.8851 18.5002 10.6185 18.6042C10.6777 19.529 11.0872 20.3964 11.7636 21.0299C12.44 21.6633 13.3324 22.0152 14.259 22.0137C15.1857 22.0123 16.077 21.6577 16.7514 21.0221C17.4258 20.3866 17.8326 19.5179 17.889 18.5929C17.622 18.4814 17.403 18.2791 17.2709 18.0217C17.1387 17.7643 17.1019 17.4685 17.167 17.1866C17.232 16.9046 17.3947 16.6548 17.6262 16.4813C17.8578 16.3078 18.1432 16.2219 18.4321 16.2386C18.7209 16.2554 18.9945 16.3738 19.2044 16.5729C19.4144 16.7721 19.547 17.039 19.579 17.3266C19.611 17.6142 19.5402 17.9038 19.3792 18.1441C19.2181 18.3845 18.9772 18.5601 18.6991 18.6399L18.6991 18.6399Z" fill="white"/>
</svg>
