<svg width="20" height="21" viewBox="0 0 20 21" fill="none" xmlns="http://www.w3.org/2000/svg">
<path d="M15.9243 13.8251C14.7619 13.8251 13.729 14.39 13.0854 15.2595L7.54442 12.4279C7.63738 12.112 7.68751 11.7781 7.68751 11.4325C7.68751 10.9646 7.59577 10.5177 7.42966 10.1087L13.237 6.6195C13.8849 7.38003 14.8492 7.86329 15.9243 7.86329C17.8707 7.86329 19.4543 6.27972 19.4543 4.33326C19.4543 2.3868 17.8707 0.803223 15.9243 0.803223C13.9778 0.803223 12.3942 2.3868 12.3942 4.33326C12.3942 4.78314 12.479 5.21353 12.6331 5.60956L6.81128 9.10743C6.16379 8.36934 5.21417 7.90251 4.15747 7.90251C2.21101 7.90251 0.627441 9.48608 0.627441 11.4325C0.627441 13.379 2.21101 14.9626 4.15747 14.9626C5.33894 14.9626 6.38657 14.3791 7.02767 13.4852L12.5526 16.3087C12.4497 16.6395 12.3942 16.9909 12.3942 17.3552C12.3942 19.3016 13.9778 20.8852 15.9243 20.8852C17.8707 20.8852 19.4543 19.3016 19.4543 17.3552C19.4543 15.4087 17.8707 13.8251 15.9243 13.8251ZM15.9243 1.9799C17.2219 1.9799 18.2776 3.03562 18.2776 4.33326C18.2776 5.6309 17.2219 6.68661 15.9243 6.68661C14.6266 6.68661 13.5709 5.6309 13.5709 4.33326C13.5709 3.03562 14.6266 1.9799 15.9243 1.9799ZM4.15747 13.7859C2.85983 13.7859 1.80412 12.7302 1.80412 11.4325C1.80412 10.1349 2.85983 9.07919 4.15747 9.07919C5.45511 9.07919 6.51083 10.1349 6.51083 11.4325C6.51083 12.7302 5.45511 13.7859 4.15747 13.7859ZM15.9243 19.7085C14.6266 19.7085 13.5709 18.6528 13.5709 17.3552C13.5709 16.0575 14.6266 15.0018 15.9243 15.0018C17.2219 15.0018 18.2776 16.0575 18.2776 17.3552C18.2776 18.6528 17.2219 19.7085 15.9243 19.7085Z" fill="#849DF8"/>
</svg>
