<svg width="23" height="21" viewBox="0 0 23 21" fill="none" xmlns="http://www.w3.org/2000/svg">
<path d="M7.27331 12.1134C10.747 12.1134 13.563 9.40175 13.563 6.05672C13.563 2.71169 10.747 0 7.27331 0C3.79963 0 0.983643 2.71169 0.983643 6.05672C0.983643 9.40175 3.79963 12.1134 7.27331 12.1134Z" fill="#28A8EA"/>
<path d="M16.3827 20.8853C19.8564 20.8853 22.6724 18.1736 22.6724 14.8286C22.6724 11.4835 19.8564 8.77185 16.3827 8.77185C12.909 8.77185 10.093 11.4835 10.093 14.8286C10.093 18.1736 12.909 20.8853 16.3827 20.8853Z" fill="#28A8EA"/>
<path d="M11.828 20.4676C17.5775 20.4676 22.2385 15.9793 22.2385 10.4427C22.2385 4.90602 17.5775 0.417725 11.828 0.417725C6.07841 0.417725 1.41748 4.90602 1.41748 10.4427C1.41748 15.9793 6.07841 20.4676 11.828 20.4676Z" fill="#28A8EA"/>
<path fill-rule="evenodd" clip-rule="evenodd" d="M9.12813 10.2523C8.72115 9.99412 8.38159 9.64891 8.13601 9.24356C7.8987 8.81554 7.78154 8.33531 7.79614 7.85029C7.77806 7.23479 7.99617 6.63443 8.40875 6.16398C8.83741 5.69154 9.38839 5.33689 10.0057 5.13613C10.6771 4.90782 11.3846 4.79317 12.0967 4.79735C12.5627 4.79309 13.0282 4.82746 13.4881 4.90012C13.817 4.94907 14.1401 5.02944 14.4526 5.13996C14.7396 5.23355 14.9987 5.39293 15.2076 5.60435C15.3615 5.77822 15.4445 6.00017 15.4408 6.22869C15.4464 6.34734 15.4276 6.46591 15.3855 6.5776C15.3434 6.68929 15.279 6.79193 15.1957 6.87961C15.1169 6.96041 15.0212 7.02424 14.9149 7.06688C14.8086 7.10956 14.6942 7.13006 14.579 7.12706C14.4206 7.12592 14.2643 7.09216 14.1206 7.02803C13.7667 6.87552 13.4021 6.74707 13.0295 6.64361C12.6865 6.55658 12.3329 6.51433 11.9781 6.51799C11.5162 6.5015 11.0591 6.61384 10.6618 6.84154C10.494 6.93965 10.3567 7.07941 10.2642 7.24619C10.1718 7.41292 10.1275 7.60054 10.1361 7.78942C10.1336 8.03713 10.2314 8.27609 10.4088 8.45553C10.6198 8.66612 10.8689 8.83773 11.1441 8.96182C11.4524 9.10911 11.9123 9.30452 12.5236 9.54809C12.5913 9.56872 12.6574 9.59417 12.7212 9.62424C13.3178 9.85141 13.8898 10.1344 14.4289 10.4693C14.8547 10.7367 15.2138 11.0916 15.4803 11.5085C15.7426 11.9465 15.8739 12.4458 15.8598 12.9512C15.8818 13.5703 15.6976 14.1799 15.334 14.6909C14.9638 15.1746 14.4517 15.5405 13.8636 15.7415C13.155 15.9852 12.4063 16.1026 11.654 16.088C10.6202 16.123 9.59122 15.9357 8.64203 15.5398C8.39912 15.4357 8.18612 15.2763 8.02143 15.0754C7.88492 14.8913 7.81416 14.6695 7.81981 14.4435C7.81299 14.3242 7.83314 14.2048 7.87887 14.0938C7.9246 13.9827 7.99477 13.8825 8.08459 13.8001C8.27315 13.6411 8.518 13.558 8.76842 13.5679C9.04716 13.5716 9.32093 13.6395 9.56687 13.7659C9.87245 13.9132 10.1136 14.0235 10.2903 14.0971C10.4921 14.1785 10.7011 14.2422 10.9149 14.2874C11.1783 14.3431 11.4474 14.3699 11.7172 14.3673C12.194 14.4 12.6686 14.278 13.0651 14.021C13.2136 13.9091 13.3323 13.7647 13.4113 13.5999C13.4904 13.4351 13.5275 13.2545 13.5196 13.0731C13.5202 12.8156 13.4184 12.5677 13.2351 12.3802C12.9928 12.1399 12.7094 11.9416 12.3971 11.794C12.0282 11.6063 11.509 11.3779 10.8397 11.1088C10.2409 10.8791 9.6675 10.5922 9.12813 10.2523Z" fill="white"/>
<path opacity="0.1" fill-rule="evenodd" clip-rule="evenodd" d="M9.23813 0.304922C8.9631 0.21625 8.68191 0.146457 8.39662 0.0960693C6.6839 0.625369 5.12696 1.5404 3.85505 2.76521C2.58313 3.99002 1.63291 5.48928 1.08325 7.13856C1.13559 7.41329 1.20806 7.68406 1.30014 7.94891C1.37704 8.1887 1.47424 8.42201 1.59076 8.64648C1.96755 6.64163 2.97111 4.79537 4.4672 3.35469C5.9633 1.91401 7.88057 0.947615 9.96253 0.584782C9.72943 0.472585 9.48715 0.378985 9.23813 0.304922Z" fill="black"/>
<path opacity="0.1" fill-rule="evenodd" clip-rule="evenodd" d="M9.23855 0.304932C7.31749 0.761193 5.56253 1.71451 4.16343 3.06179C2.76433 4.40905 1.77435 6.09902 1.30054 7.94893C1.37744 8.18872 1.47464 8.42202 1.59116 8.6465C1.96795 6.64164 2.97152 4.79539 4.4676 3.3547C5.96367 1.91402 7.88098 0.947625 9.96295 0.584796C9.72984 0.472594 9.48756 0.378995 9.23855 0.304932Z" fill="black"/>
<path opacity="0.1" fill-rule="evenodd" clip-rule="evenodd" d="M22.3555 12.9363C22.2786 12.6965 22.1814 12.4632 22.0649 12.2388C21.6881 14.2436 20.6845 16.0899 19.1884 17.5306C17.6924 18.9712 15.7751 19.9376 13.6931 20.3005C13.9262 20.4126 14.1685 20.5063 14.4175 20.5803C14.6925 20.669 14.9738 20.7388 15.259 20.7892C16.9718 20.2599 18.5287 19.3448 19.8006 18.12C21.0725 16.8952 22.0228 15.396 22.5724 13.7467C22.5201 13.472 22.4476 13.2011 22.3555 12.9363Z" fill="black"/>
<path opacity="0.1" fill-rule="evenodd" clip-rule="evenodd" d="M22.0649 12.2388C21.6881 14.2436 20.6845 16.0899 19.1884 17.5306C17.6924 18.9712 15.7751 19.9376 13.6931 20.3005C13.9262 20.4126 14.1685 20.5063 14.4175 20.5803C16.3386 20.124 18.0935 19.1708 19.4926 17.8235C20.8917 16.4762 21.8817 14.7862 22.3555 12.9363C22.2786 12.6965 22.1814 12.4632 22.0649 12.2388Z" fill="black"/>
</svg>
