<svg width="20" height="20" viewBox="0 0 20 20" fill="none" xmlns="http://www.w3.org/2000/svg">
<path d="M12.9468 8.87934L12.9321 1.75414C12.9301 0.786914 12.1416 0 11.1743 0H1.75781C0.788555 0 0 0.788555 0 1.75777V8.86695C0 9.83617 0.788555 10.6247 1.75781 10.6247H2.96875V11.7966C2.96875 12.2783 3.52043 12.5546 3.90625 12.2653L6.09297 10.6253L11.1837 10.6407C12.1721 10.6407 12.9488 9.84438 12.9468 8.87934ZM6.44531 8.24199C6.12172 8.24199 5.85938 7.97965 5.85938 7.65605C5.85938 7.33246 6.12172 7.07012 6.44531 7.07012C6.76891 7.07012 7.03125 7.33246 7.03125 7.65605C7.03125 7.97965 6.76891 8.24199 6.44531 8.24199ZM7.07031 5.79777V5.85922C7.07031 6.18281 6.80797 6.44516 6.48438 6.44516C6.16078 6.44516 5.89844 6.18281 5.89844 5.85922V5.49363C5.89844 5.10664 6.18605 4.77434 6.56746 4.72062C6.85414 4.68027 7.07031 4.4309 7.07031 4.14047C7.07031 3.71348 6.59977 3.34734 6.06141 3.69184C5.78875 3.86621 5.42645 3.78656 5.25207 3.51402C5.0777 3.24145 5.1573 2.8791 5.42988 2.70469C6.03418 2.31813 6.74356 2.27824 7.32762 2.59789C7.89172 2.90676 8.24219 3.49781 8.24219 4.14051C8.24219 4.89281 7.75754 5.55352 7.07031 5.79777Z" fill="#B6B6B6"/>
<path d="M18.2422 8.24194H14.1173L14.1187 8.87687C14.1216 10.3236 13.0855 11.4976 11.758 11.7575H17.0312C17.3548 11.7575 17.6172 12.0198 17.6172 12.3434C17.6172 12.667 17.3548 12.9294 17.0312 12.9294H10C9.67641 12.9294 9.41406 12.667 9.41406 12.3434C9.41406 12.1046 9.55723 11.8994 9.76223 11.8082L7.07031 11.8001V17.0698C7.07031 18.0391 7.85887 18.8276 8.82812 18.8276H12.7914L15.0114 19.9376C15.3998 20.1318 15.8594 19.8489 15.8594 19.4135V18.8276H18.2422C19.2114 18.8276 20 18.0391 20 17.0698V9.99972C20 9.03046 19.2114 8.24194 18.2422 8.24194ZM17.0312 15.273H10C9.67641 15.273 9.41406 15.0107 9.41406 14.6871C9.41406 14.3635 9.67641 14.1011 10 14.1011H17.0312C17.3548 14.1011 17.6172 14.3635 17.6172 14.6871C17.6172 15.0107 17.3548 15.273 17.0312 15.273Z" fill="#B6B6B6"/>
</svg>
