<svg width="20" height="23" viewBox="0 0 20 23" fill="none" xmlns="http://www.w3.org/2000/svg">
<path d="M6.28843 12.1773C6.29868 12.0869 6.34184 12.0034 6.40969 11.9428C6.47753 11.8821 6.56532 11.8486 6.65632 11.8485H14.7961L14.4157 6.64308C14.409 6.54983 14.3672 6.4626 14.2987 6.39894C14.2303 6.33527 14.1402 6.2999 14.0468 6.29994H11.825V4.06043C11.8255 3.52739 11.7209 2.99948 11.5173 2.50686C11.3136 2.01425 11.0149 1.5666 10.6382 1.18951C10.2614 0.812411 9.81409 0.513261 9.32167 0.309158C8.82925 0.105054 8.30144 0 7.7684 0C7.23536 0 6.70754 0.105054 6.21512 0.309158C5.72271 0.513261 5.27534 0.812411 4.89861 1.18951C4.52187 1.5666 4.22315 2.01425 4.01952 2.50686C3.81588 2.99948 3.71133 3.52739 3.71184 4.06043V6.29994H1.48426C1.39077 6.2999 1.30074 6.33527 1.23228 6.39894C1.16382 6.4626 1.12202 6.54983 1.11528 6.64308L0.00691351 21.8054C-0.00385049 21.8573 -0.00202341 21.9111 0.012242 21.9622C0.0265074 22.0133 0.0527969 22.0603 0.0889142 22.0992C0.125031 22.138 0.169928 22.1677 0.219852 22.1857C0.269776 22.2037 0.323278 22.2094 0.375888 22.2025L5.16179 22.2027L6.28843 12.1773ZM12.1968 9.24417C12.1969 9.39049 12.1536 9.53355 12.0723 9.65525C11.9911 9.77695 11.8756 9.87182 11.7404 9.92787C11.6052 9.98391 11.4565 9.99862 11.313 9.97011C11.1695 9.94161 11.0376 9.87119 10.9341 9.76775C10.8306 9.66431 10.7601 9.5325 10.7316 9.38899C10.703 9.24548 10.7176 9.09672 10.7736 8.96153C10.8296 8.82634 10.9244 8.71078 11.046 8.62948C11.1677 8.54818 11.3107 8.50479 11.4571 8.50479C11.6532 8.50492 11.8412 8.58284 11.9799 8.72147C12.1186 8.86009 12.1966 9.04808 12.1968 9.24417ZM4.45197 4.06043C4.45151 3.62462 4.53695 3.19298 4.70341 2.79021C4.86987 2.38744 5.11409 2.02142 5.42209 1.71309C5.7301 1.40476 6.09585 1.16016 6.49845 0.993273C6.90105 0.826388 7.33259 0.740489 7.76841 0.740489C8.20422 0.740489 8.63577 0.826388 9.03836 0.993273C9.44096 1.16016 9.80672 1.40476 10.1147 1.71309C10.4227 2.02142 10.6669 2.38744 10.8334 2.79021C10.9999 3.19298 11.0853 3.62462 11.0848 4.06043V6.29994H4.45197V4.06043ZM4.07287 9.98337C3.92666 9.98328 3.78376 9.93984 3.66224 9.85855C3.54072 9.77726 3.44603 9.66176 3.39015 9.52665C3.33426 9.39155 3.31969 9.24291 3.34827 9.09953C3.37686 8.95614 3.44731 8.82445 3.55073 8.72111C3.65415 8.61776 3.78589 8.5474 3.9293 8.51892C4.0727 8.49044 4.22133 8.50512 4.35639 8.5611C4.49146 8.61709 4.60689 8.71186 4.68809 8.83344C4.7693 8.95502 4.81263 9.09795 4.81261 9.24415C4.81226 9.44019 4.7342 9.62809 4.59553 9.76665C4.45686 9.90522 4.2689 9.98316 4.07287 9.98337Z" fill="#B6B6B6"/>
<path d="M9.24469 15.546C9.44886 15.546 9.61438 15.3805 9.61438 15.1763C9.61438 14.9722 9.44886 14.8066 9.24469 14.8066C9.04052 14.8066 8.875 14.9722 8.875 15.1763C8.875 15.3805 9.04052 15.546 9.24469 15.546Z" fill="#B6B6B6"/>
<path d="M16.7102 15.546C16.9144 15.546 17.0799 15.3805 17.0799 15.1763C17.0799 14.9722 16.9144 14.8066 16.7102 14.8066C16.506 14.8066 16.3405 14.9722 16.3405 15.1763C16.3405 15.3805 16.506 15.546 16.7102 15.546Z" fill="#B6B6B6"/>
<path d="M19.9897 21.792L18.9923 12.9175C18.982 12.8271 18.9388 12.7436 18.871 12.6829C18.8032 12.6223 18.7154 12.5887 18.6244 12.5886H7.32373C7.23109 12.5886 7.1417 12.6227 7.07263 12.6845C7.00356 12.7462 6.95966 12.8313 6.94931 12.9233L5.90674 22.2028L19.6218 22.2033C19.6758 22.2108 19.7308 22.2049 19.782 22.1861C19.8331 22.1673 19.8789 22.1363 19.9153 22.0956C19.9516 22.055 19.9774 22.0061 19.9904 21.9531C20.0034 21.9002 20.0031 21.8449 19.9897 21.792ZM17.012 16.239C16.9498 17.2717 16.4955 18.2417 15.7419 18.9506C14.9882 19.6594 13.9922 20.0535 12.9576 20.0523C11.923 20.0511 10.928 19.6546 10.176 18.944C9.42402 18.2334 8.97195 17.2624 8.91225 16.2295C8.66398 16.15 8.45178 15.9854 8.31313 15.7646C8.17447 15.5439 8.11828 15.2813 8.15448 15.0231C8.19067 14.765 8.31693 14.5279 8.51095 14.3538C8.70497 14.1797 8.95427 14.0798 9.21482 14.0717C9.47536 14.0635 9.7304 14.1477 9.93489 14.3094C10.1394 14.4711 10.2802 14.6998 10.3324 14.9552C10.3846 15.2106 10.3449 15.4762 10.2202 15.7052C10.0956 15.9341 9.89405 16.1117 9.65122 16.2065C9.70517 17.0489 10.0782 17.839 10.6943 18.416C11.3104 18.9931 12.1233 19.3135 12.9674 19.3122C13.8116 19.3109 14.6235 18.9879 15.2378 18.409C15.8521 17.83 16.2227 17.0387 16.274 16.1962C16.0308 16.0946 15.8313 15.9103 15.711 15.6758C15.5906 15.4414 15.5571 15.1719 15.6163 14.9151C15.6756 14.6583 15.8238 14.4307 16.0347 14.2727C16.2456 14.1146 16.5056 14.0363 16.7687 14.0516C17.0318 14.0669 17.2811 14.1748 17.4723 14.3561C17.6635 14.5375 17.7844 14.7807 17.8135 15.0427C17.8426 15.3046 17.7781 15.5684 17.6314 15.7873C17.4847 16.0063 17.2653 16.1663 17.012 16.239L17.012 16.239Z" fill="#B6B6B6"/>
</svg>
