<svg width="21" height="19" viewBox="0 0 21 19" fill="none" xmlns="http://www.w3.org/2000/svg">
<path d="M0.112419 13.3638L1.82252 17.8274C2.17419 18.7579 3.2359 19.2271 4.18963 18.892L6.50382 18.0796C6.82369 17.9677 6.98844 17.6268 6.87179 17.3189L5.71342 14.2499H6.79845C7.03175 14.2499 7.24456 14.1229 7.34919 13.9217L7.83619 12.9824L8.66411 16.1749C8.73446 16.448 8.96952 16.6417 9.28577 16.6243C9.57736 16.6133 9.82026 16.4063 9.86837 16.1286L10.4925 12.518L11.1165 16.1286C11.1646 16.4063 11.4076 16.6133 11.6991 16.6243C11.7076 16.6249 11.716 16.6249 11.7238 16.6249C12.0052 16.6249 12.2523 16.4405 12.3208 16.1749L13.1488 12.9824L13.6358 13.9217C13.7404 14.1229 13.9532 14.2499 14.1865 14.2499H15.2715L14.1132 17.3189C13.9965 17.6268 14.1613 17.9678 14.4811 18.0797L16.7953 18.892C17.7475 19.2266 18.8103 18.7592 19.1624 17.8274L20.8876 13.3639C21.2379 12.4369 20.7417 11.4177 19.7837 11.0811L19.4501 10.9782C19.618 10.3004 19.7276 9.60944 19.7276 8.90617C19.7276 3.99503 15.585 0 10.4925 0C5.39992 0 1.25733 3.99503 1.25733 8.90617C1.25733 9.60944 1.367 10.3004 1.53479 10.9782L1.21628 11.0811C0.258909 11.4176 -0.238105 12.4363 0.112419 13.3638ZM2.48868 8.90613C2.48868 6.68996 3.46781 4.69462 5.02419 3.2855L6.36743 4.57179C6.57672 4.78554 6.9215 4.80929 7.16777 4.63117C9.10099 3.22993 11.8839 3.22993 13.8171 4.63117C14.054 4.80889 14.4175 4.78613 14.6174 4.57179L15.9607 3.2855C17.5171 4.69462 18.4962 6.68996 18.4962 8.90613C18.4962 9.47022 18.4115 10.0245 18.2868 10.5699L17.429 10.2687C17.1109 10.158 16.7562 10.3157 16.6401 10.6236L15.7196 13.0623H14.567L13.5059 11.0155C13.3904 10.7935 13.1505 10.6659 12.8878 10.6908C12.6316 10.7181 12.4206 10.8961 12.3581 11.1373L11.8446 13.1174L11.0997 8.80867C11.0504 8.52225 10.7936 8.31234 10.4924 8.31234C10.1912 8.31234 9.93445 8.52225 9.88515 8.80867L9.14023 13.1174L8.62675 11.1373C8.56424 10.8961 8.35319 10.7181 8.09707 10.6908C7.83795 10.6676 7.59443 10.7935 7.47897 11.0155L6.41779 13.0623H5.26525L4.34473 10.6236C4.2287 10.3151 3.87456 10.1574 3.55589 10.2687L2.69805 10.5699C2.5734 10.0245 2.48868 9.47022 2.48868 8.90613Z" fill="#B6B6B6"/>
</svg>
