<svg width="22" height="21" viewBox="0 0 22 21" fill="none" xmlns="http://www.w3.org/2000/svg">
<path d="M0.524658 10.4426C0.524658 4.67532 5.19998 0 10.9673 0C16.7346 0 21.4099 4.67532 21.4099 10.4426C21.4099 16.2099 16.7346 20.8852 10.9673 20.8852C5.19998 20.8852 0.524658 16.2099 0.524658 10.4426Z" fill="#55ACEE"/>
<path d="M10.6544 8.48795L10.6763 8.84928L10.3111 8.80504C8.9817 8.63543 7.8203 8.06024 6.8342 7.09421L6.35211 6.61489L6.22794 6.96885C5.96498 7.7579 6.13298 8.59119 6.68081 9.15163C6.97299 9.46135 6.90725 9.50559 6.40325 9.32124C6.22794 9.26224 6.07455 9.218 6.05994 9.24012C6.00881 9.29174 6.18411 9.9628 6.3229 10.2283C6.51281 10.597 6.89994 10.9583 7.3236 11.1722L7.68151 11.3418L7.25786 11.3492C6.84881 11.3492 6.8342 11.3565 6.87803 11.5114C7.02412 11.9907 7.60117 12.4995 8.24395 12.7208L8.69683 12.8756L8.30239 13.1116C7.71804 13.4508 7.03142 13.6425 6.34481 13.6573C6.01611 13.6647 5.74585 13.6942 5.74585 13.7163C5.74585 13.79 6.63699 14.203 7.1556 14.3652C8.71144 14.8446 10.5594 14.6381 11.9473 13.8195C12.9334 13.237 13.9195 12.0792 14.3796 10.9583C14.628 10.361 14.8763 9.26962 14.8763 8.74605C14.8763 8.40683 14.8983 8.36258 15.3073 7.957C15.5484 7.72102 15.7748 7.46293 15.8186 7.38918C15.8917 7.24907 15.8844 7.24907 15.5118 7.37443C14.891 7.59566 14.8033 7.56616 15.1101 7.23432C15.3365 6.99835 15.6068 6.57064 15.6068 6.44528C15.6068 6.42316 15.4972 6.46003 15.373 6.5264C15.2416 6.60014 14.9494 6.71075 14.7303 6.77712L14.3358 6.90248L13.9779 6.65913C13.7807 6.5264 13.5031 6.37891 13.357 6.33466C12.9845 6.23143 12.4148 6.24617 12.0788 6.36416C11.1657 6.696 10.5887 7.55142 10.6544 8.48795Z" fill="white"/>
</svg>
