<svg width="11" height="26" viewBox="0 0 11 26" fill="none" xmlns="http://www.w3.org/2000/svg">
<path d="M6.92674 14.181C6.938 14.0817 6.98538 13.9901 7.05986 13.9235C7.13434 13.8569 7.23071 13.8201 7.33061 13.82H16.2665L15.8489 8.1055C15.8415 8.00314 15.7956 7.90737 15.7204 7.83748C15.6453 7.76759 15.5464 7.72876 15.4438 7.72881H13.0047V5.27028C13.0053 4.68511 12.8905 4.10556 12.667 3.56477C12.4434 3.02399 12.1155 2.53256 11.7019 2.11858C11.2883 1.70461 10.7972 1.3762 10.2566 1.15214C9.71605 0.928073 9.13662 0.812744 8.55145 0.812744C7.96627 0.812744 7.38684 0.928073 6.84627 1.15214C6.30569 1.3762 5.81458 1.70461 5.401 2.11858C4.98742 2.53256 4.65948 3.02399 4.43593 3.56477C4.21238 4.10556 4.09761 4.68511 4.09817 5.27028V7.72881H1.65273C1.5501 7.72876 1.45127 7.76759 1.37611 7.83748C1.30096 7.90737 1.25507 8.00314 1.24767 8.1055L0.0309051 24.7506C0.0190884 24.8077 0.0210941 24.8667 0.0367547 24.9228C0.0524152 24.9789 0.0812758 25.0305 0.120925 25.0732C0.160575 25.1158 0.209862 25.1484 0.264668 25.1681C0.319475 25.1879 0.378209 25.1942 0.435965 25.1866L5.68991 25.1868L6.92674 14.181ZM13.413 10.961C13.413 11.1216 13.3655 11.2787 13.2763 11.4123C13.1871 11.5459 13.0603 11.65 12.9119 11.7115C12.7635 11.7731 12.6002 11.7892 12.4427 11.7579C12.2851 11.7266 12.1404 11.6493 12.0268 11.5358C11.9132 11.4222 11.8358 11.2775 11.8044 11.12C11.773 10.9624 11.7891 10.7991 11.8505 10.6507C11.912 10.5023 12.0161 10.3754 12.1496 10.2862C12.2832 10.1969 12.4402 10.1493 12.6009 10.1493C12.8161 10.1494 13.0225 10.235 13.1748 10.3872C13.3271 10.5393 13.4127 10.7457 13.413 10.961ZM4.91068 5.27028C4.91017 4.79184 5.00397 4.31799 5.18671 3.87583C5.36945 3.43367 5.63755 3.03186 5.97568 2.69337C6.31381 2.35489 6.71533 2.08636 7.1573 1.90316C7.59927 1.71995 8.07302 1.62565 8.55146 1.62565C9.02989 1.62565 9.50364 1.71995 9.94561 1.90316C10.3876 2.08636 10.7891 2.35489 11.1272 2.69337C11.4654 3.03186 11.7335 3.43367 11.9162 3.87583C12.0989 4.31799 12.1927 4.79184 12.1922 5.27028V7.72881H4.91068V5.27028ZM4.4945 11.7725C4.334 11.7724 4.17712 11.7247 4.04372 11.6354C3.91031 11.5462 3.80636 11.4194 3.74501 11.2711C3.68366 11.1228 3.66766 10.9596 3.69904 10.8022C3.73042 10.6448 3.80777 10.5002 3.9213 10.3868C4.03484 10.2733 4.17946 10.1961 4.33689 10.1648C4.49432 10.1335 4.65748 10.1496 4.80576 10.2111C4.95403 10.2726 5.08075 10.3766 5.1699 10.5101C5.25904 10.6435 5.30661 10.8005 5.30659 10.961C5.30621 11.1762 5.22051 11.3824 5.06828 11.5346C4.91604 11.6867 4.70971 11.7722 4.4945 11.7725Z" fill="white"/>
</svg>
