<svg width="17" height="16" viewBox="0 0 17 16" fill="none" xmlns="http://www.w3.org/2000/svg">
<path d="M15.2194 13.3323H1.44891C0.91701 13.3676 0.443928 13.6088 0.19019 13.974C-0.0633967 14.3392 -0.0633967 14.7792 0.19019 15.1444C0.443905 15.5095 0.91701 15.7508 1.44891 15.7861H15.2194C15.7513 15.7508 16.2244 15.5095 16.4781 15.1444C16.7317 14.7792 16.7317 14.3392 16.4781 13.974C16.2244 13.6088 15.7513 13.3676 15.2194 13.3323Z" fill="#75818F"/>
<path d="M15.2754 6.66046H1.45425C0.920386 6.69588 0.445562 6.93752 0.19089 7.30336C-0.0636302 7.66919 -0.0636302 8.10996 0.19089 8.47579C0.445539 8.84163 0.920386 9.08336 1.45425 9.11868H15.2754C15.7189 9.14811 16.1579 9.03179 16.4857 8.79823C16.8135 8.56458 17 8.23495 17 7.88957C17 7.5442 16.8135 7.21455 16.4857 6.98102C16.1579 6.74737 15.7189 6.63115 15.2754 6.66046V6.66046Z" fill="#75818F"/>
<path d="M1.45425 2.4627H15.2754C15.7189 2.49203 16.1579 2.37581 16.4857 2.14215C16.8135 1.9086 17 1.57897 17 1.23359C17 0.888217 16.8135 0.558573 16.4857 0.324934C16.1579 0.0913841 15.7189 -0.0249375 15.2754 0.00448444H1.45425C0.920386 0.039801 0.445562 0.281542 0.19089 0.647375C-0.0636302 1.01321 -0.0636302 1.45398 0.19089 1.81981C0.445539 2.18565 0.920386 2.42728 1.45425 2.4627Z" fill="#75818F"/>
</svg>
