<svg width="16" height="20" viewBox="0 0 16 20" fill="none" xmlns="http://www.w3.org/2000/svg">
<path d="M5.0459 18.2358C5.50495 19.2737 6.54383 20 7.74971 20C8.95559 20 9.99444 19.2737 10.4535 18.2358H5.0459Z" fill="#75818F"/>
<path d="M7.74947 2.31268C8.54523 2.31268 9.30931 2.45309 10.0184 2.71014V2.6228C10.0184 1.42159 9.04112 0.444336 7.83995 0.444336H7.65941C6.45821 0.444336 5.48096 1.42159 5.48096 2.6228V2.70903C6.18964 2.45274 6.95349 2.31268 7.74947 2.31268V2.31268Z" fill="#75818F"/>
<path d="M14.9102 17.0878H0.588994C0.318054 17.0878 0.0698777 16.9051 0.0135244 16.6401C-0.0422551 16.3777 0.0773379 16.1187 0.319967 16.0066C0.377545 15.9692 0.810926 15.6662 1.2448 14.7493C2.04167 13.0656 2.20893 10.6939 2.20893 9.00066C2.20893 5.94561 4.69441 3.46021 7.74942 3.46021C10.7972 3.46021 13.2781 5.93363 13.2899 8.97866C13.2901 8.98597 13.2903 8.99331 13.2903 9.00066C13.2903 10.6939 13.4576 13.0656 14.2544 14.7493C14.6883 15.6662 15.1216 15.9693 15.1793 16.0066C15.4219 16.1187 15.5415 16.3776 15.4857 16.6401C15.4294 16.9051 15.1812 17.0878 14.9102 17.0878ZM15.1857 16.0106H15.1861H15.1857Z" fill="#75818F"/>
</svg>
